{
  "accessors": [
    {
      "bufferView": 2,
      "componentType": 5126,
      "count": 96,
      "max": [
        4.3874640464782715,
        36.665958404541016,
        3.512169122695923
      ],
      "min": [
        -4.129140853881836,
        22.550357818603516,
        -3.4653379917144775
      ],
      "type": "VEC3"
    },
    {
      "bufferView": 2,
      "byteOffset": 1152,
      "componentType": 5126,
      "count": 96,
      "max": [
        0.9177952408790588,
        0.686232328414917,
        0.9622470736503601
      ],
      "min": [
        -0.918010413646698,
        -0.6984179019927979,
        -0.980233371257782
      ],
      "type": "VEC3"
    },
    {
      "bufferView": 3,
      "componentType": 5126,
      "count": 96,
      "max": [
        0.5305118560791016,
        0.9547625780105591,
        0.8284410834312439,
        1.0
      ],
      "min": [
        -0.5141411423683167,
        -0.9451283812522888,
        -0.9248810410499573,
        1.0
      ],
      "type": "VEC4"
    },
    {
      "bufferView": 1,
      "componentType": 5126,
      "count": 96,
      "max": [
        0.748439371585846,
        0.7214647531509399
      ],
      "min": [
        0.3354257345199585,
        0.5729993581771851
      ],
      "type": "VEC2"
    },
    {
      "bufferView": 1,
      "byteOffset": 768,
      "componentType": 5126,
      "count": 96,
      "max": [
        0.748439371585846,
        0.7214647531509399
      ],
      "min": [
        0.3354257345199585,
        0.5729993581771851
      ],
      "type": "VEC2"
    },
    {
      "bufferView": 1,
      "byteOffset": 1536,
      "componentType": 5126,
      "count": 96,
      "max": [
        0.748439371585846,
        0.7214647531509399
      ],
      "min": [
        0.3354257345199585,
        0.5729993581771851
      ],
      "type": "VEC2"
    },
    {
      "bufferView": 1,
      "byteOffset": 2304,
      "componentType": 5126,
      "count": 96,
      "max": [
        0.748439371585846,
        0.7214647531509399
      ],
      "min": [
        0.3354257345199585,
        0.5729993581771851
      ],
      "type": "VEC2"
    },
    {
      "bufferView": 0,
      "componentType": 5125,
      "count": 144,
      "type": "SCALAR"
    },
    {
      "bufferView": 2,
      "byteOffset": 2304,
      "componentType": 5126,
      "count": 123,
      "max": [
        21.726234436035156,
        3.577810764312744,
        21.726234436035156
      ],
      "min": [
        -21.726234436035156,
        0.2665371894836426,
        -21.726234436035156
      ],
      "type": "VEC3"
    },
    {
      "bufferView": 2,
      "byteOffset": 3780,
      "componentType": 5126,
      "count": 123,
      "max": [
        0.9871963262557983,
        1.0,
        0.9871964454650879
      ],
      "min": [
        -0.9871963262557983,
        0.0,
        -0.9871964454650879
      ],
      "type": "VEC3"
    },
    {
      "bufferView": 3,
      "byteOffset": 1536,
      "componentType": 5126,
      "count": 123,
      "max": [
        0.36642783880233765,
        0.9998356699943542,
        0.08890140056610107,
        1.0
      ],
      "min": [
        -0.6855123043060303,
        -0.9998356699943542,
        -0.9349219799041748,
        1.0
      ],
      "type": "VEC4"
    },
    {
      "bufferView": 1,
      "byteOffset": 3072,
      "componentType": 5126,
      "count": 123,
      "max": [
        0.44072777032852173,
        0.44074082374572754
      ],
      "min": [
        0.00732421875,
        0.007337138056755066
      ],
      "type": "VEC2"
    },
    {
      "bufferView": 1,
      "byteOffset": 4056,
      "componentType": 5126,
      "count": 123,
      "max": [
        0.44072777032852173,
        0.44074082374572754
      ],
      "min": [
        0.00732421875,
        0.007337138056755066
      ],
      "type": "VEC2"
    },
    {
      "bufferView": 1,
      "byteOffset": 5040,
      "componentType": 5126,
      "count": 123,
      "max": [
        0.44072777032852173,
        0.44074082374572754
      ],
      "min": [
        0.00732421875,
        0.007337138056755066
      ],
      "type": "VEC2"
    },
    {
      "bufferView": 1,
      "byteOffset": 6024,
      "componentType": 5126,
      "count": 123,
      "max": [
        0.44072777032852173,
        0.44074082374572754
      ],
      "min": [
        0.00732421875,
        0.007337138056755066
      ],
      "type": "VEC2"
    },
    {
      "bufferView": 0,
      "byteOffset": 576,
      "componentType": 5125,
      "count": 180,
      "type": "SCALAR"
    },
    {
      "bufferView": 2,
      "byteOffset": 5256,
      "componentType": 5126,
      "count": 50,
      "max": [
        19.982147216796875,
        38.034828186035156,
        0.5599856972694397
      ],
      "min": [
        9.201549530029297,
        23.744396209716797,
        -5.896324634552002
      ],
      "type": "VEC3"
    },
    {
      "bufferView": 2,
      "byteOffset": 5856,
      "componentType": 5126,
      "count": 50,
      "max": [
        0.9728989005088806,
        0.9259756207466125,
        0.978480339050293
      ],
      "min": [
        -0.9612428545951843,
        -0.8390744924545288,
        -0.9784803986549377
      ],
      "type": "VEC3"
    },
    {
      "bufferView": 3,
      "byteOffset": 3504,
      "componentType": 5126,
      "count": 50,
      "max": [
        0.840872049331665,
        0.7908341884613037,
        0.9780057668685913,
        1.0
      ],
      "min": [
        -0.7208705544471741,
        -0.9534817934036255,
        -0.9754540324211121,
        1.0
      ],
      "type": "VEC4"
    },
    {
      "bufferView": 1,
      "byteOffset": 7008,
      "componentType": 5126,
      "count": 50,
      "max": [
        0.9902074337005615,
        0.3619891405105591
      ],
      "min": [
        0.7475348711013794,
        0.13226920366287231
      ],
      "type": "VEC2"
    },
    {
      "bufferView": 1,
      "byteOffset": 7408,
      "componentType": 5126,
      "count": 50,
      "max": [
        0.9902074337005615,
        0.3619891405105591
      ],
      "min": [
        0.7475348711013794,
        0.13226920366287231
      ],
      "type": "VEC2"
    },
    {
      "bufferView": 1,
      "byteOffset": 7808,
      "componentType": 5126,
      "count": 50,
      "max": [
        0.9902074337005615,
        0.3619891405105591
      ],
      "min": [
        0.7475348711013794,
        0.13226920366287231
      ],
      "type": "VEC2"
    },
    {
      "bufferView": 1,
      "byteOffset": 8208,
      "componentType": 5126,
      "count": 50,
      "max": [
        0.9902074337005615,
        0.3619891405105591
      ],
      "min": [
        0.7475348711013794,
        0.13226920366287231
      ],
      "type": "VEC2"
    },
    {
      "bufferView": 0,
      "byteOffset": 1296,
      "componentType": 5125,
      "count": 72,
      "type": "SCALAR"
    },
    {
      "bufferView": 2,
      "byteOffset": 6456,
      "componentType": 5126,
      "count": 68,
      "max": [
        3.8529152870178223,
        20.288585662841797,
        -2.5535788536071777
      ],
      "min": [
        -3.978264808654785,
        8.921780586242676,
        -5.734512805938721
      ],
      "type": "VEC3"
    },
    {
      "bufferView": 2,
      "byteOffset": 7272,
      "componentType": 5126,
      "count": 68,
      "max": [
        0.8107350468635559,
        1.0,
        0.9999988079071045
      ],
      "min": [
        -0.8089341521263123,
        0.0,
        -0.999998927116394
      ],
      "type": "VEC3"
    },
    {
      "bufferView": 3,
      "byteOffset": 4304,
      "componentType": 5126,
      "count": 68,
      "max": [
        0.9999988675117493,
        0.00010623542766552418,
        0.8089342713356018,
        1.0
      ],
      "min": [
        -0.999998927116394,
        -0.00011682266631396487,
        -0.9999987483024597,
        1.0
      ],
      "type": "VEC4"
    },
    {
      "bufferView": 1,
      "byteOffset": 8608,
      "componentType": 5126,
      "count": 68,
      "max": [
        0.9885063171386719,
        0.9011812210083008
      ],
      "min": [
        0.41588205099105835,
        0.00732421875
      ],
      "type": "VEC2"
    },
    {
      "bufferView": 1,
      "byteOffset": 9152,
      "componentType": 5126,
      "count": 68,
      "max": [
        0.9885063171386719,
        0.9011812210083008
      ],
      "min": [
        0.41588205099105835,
        0.00732421875
      ],
      "type": "VEC2"
    },
    {
      "bufferView": 1,
      "byteOffset": 9696,
      "componentType": 5126,
      "count": 68,
      "max": [
        0.9885063171386719,
        0.9011812210083008
      ],
      "min": [
        0.41588205099105835,
        0.00732421875
      ],
      "type": "VEC2"
    },
    {
      "bufferView": 1,
      "byteOffset": 10240,
      "componentType": 5126,
      "count": 68,
      "max": [
        0.9885063171386719,
        0.9011812210083008
      ],
      "min": [
        0.41588205099105835,
        0.00732421875
      ],
      "type": "VEC2"
    },
    {
      "bufferView": 0,
      "byteOffset": 1584,
      "componentType": 5125,
      "count": 102,
      "type": "SCALAR"
    },
    {
      "bufferView": 2,
      "byteOffset": 8088,
      "componentType": 5126,
      "count": 64,
      "max": [
        -1.7471776008605957,
        18.44915199279785,
        5.664705276489258
      ],
      "min": [
        -5.953031063079834,
        8.921780586242676,
        -1.615555763244629
      ],
      "type": "VEC3"
    },
    {
      "bufferView": 2,
      "byteOffset": 8856,
      "componentType": 5126,
      "count": 64,
      "max": [
        0.9983683824539185,
        1.0,
        0.969014048576355
      ],
      "min": [
        -0.9859596490859985,
        0.0,
        -0.8805023431777954
      ],
      "type": "VEC3"
    },
    {
      "bufferView": 3,
      "byteOffset": 5392,
      "componentType": 5126,
      "count": 64,
      "max": [
        0.9724387526512146,
        0.0001451791322324425,
        0.9859597086906433,
        1.0
      ],
      "min": [
        -0.8805023431777954,
        -7.519580549342209e-07,
        -0.9983683228492737,
        1.0
      ],
      "type": "VEC4"
    },
    {
      "bufferView": 1,
      "byteOffset": 10784,
      "componentType": 5126,
      "count": 64,
      "max": [
        0.9469475746154785,
        0.4848456084728241
      ],
      "min": [
        0.00732421875,
        0.007336616516113281
      ],
      "type": "VEC2"
    },
    {
      "bufferView": 1,
      "byteOffset": 11296,
      "componentType": 5126,
      "count": 64,
      "max": [
        0.9469475746154785,
        0.4848456084728241
      ],
      "min": [
        0.00732421875,
        0.007336616516113281
      ],
      "type": "VEC2"
    },
    {
      "bufferView": 1,
      "byteOffset": 11808,
      "componentType": 5126,
      "count": 64,
      "max": [
        0.9469475746154785,
        0.4848456084728241
      ],
      "min": [
        0.00732421875,
        0.007336616516113281
      ],
      "type": "VEC2"
    },
    {
      "bufferView": 1,
      "byteOffset": 12320,
      "componentType": 5126,
      "count": 64,
      "max": [
        0.9469475746154785,
        0.4848456084728241
      ],
      "min": [
        0.00732421875,
        0.007336616516113281
      ],
      "type": "VEC2"
    },
    {
      "bufferView": 0,
      "byteOffset": 1992,
      "componentType": 5125,
      "count": 102,
      "type": "SCALAR"
    },
    {
      "bufferView": 2,
      "byteOffset": 9624,
      "componentType": 5126,
      "count": 50,
      "max": [
        -12.107730865478516,
        25.534725189208984,
        2.8644356727600098
      ],
      "min": [
        -23.903297424316406,
        18.522315979003906,
        -3.009284734725952
      ],
      "type": "VEC3"
    },
    {
      "bufferView": 2,
      "byteOffset": 10224,
      "componentType": 5126,
      "count": 50,
      "max": [
        0.9239345788955688,
        0.9004844427108765,
        0.9644952416419983
      ],
      "min": [
        -0.9641638398170471,
        -0.9997290968894958,
        -0.9644953608512878
      ],
      "type": "VEC3"
    },
    {
      "bufferView": 3,
      "byteOffset": 6416,
      "componentType": 5126,
      "count": 50,
      "max": [
        0.6621361374855042,
        0.9418723583221436,
        0.7928083539009094,
        1.0
      ],
      "min": [
        -0.48128223419189453,
        -0.8668416142463684,
        -0.969916820526123,
        1.0
      ],
      "type": "VEC4"
    },
    {
      "bufferView": 1,
      "byteOffset": 12832,
      "componentType": 5126,
      "count": 50,
      "max": [
        0.9902074337005615,
        0.3619891405105591
      ],
      "min": [
        0.7475348711013794,
        0.13226920366287231
      ],
      "type": "VEC2"
    },
    {
      "bufferView": 1,
      "byteOffset": 13232,
      "componentType": 5126,
      "count": 50,
      "max": [
        0.9902074337005615,
        0.3619891405105591
      ],
      "min": [
        0.7475348711013794,
        0.13226920366287231
      ],
      "type": "VEC2"
    },
    {
      "bufferView": 1,
      "byteOffset": 13632,
      "componentType": 5126,
      "count": 50,
      "max": [
        0.9902074337005615,
        0.3619891405105591
      ],
      "min": [
        0.7475348711013794,
        0.13226920366287231
      ],
      "type": "VEC2"
    },
    {
      "bufferView": 1,
      "byteOffset": 14032,
      "componentType": 5126,
      "count": 50,
      "max": [
        0.9902074337005615,
        0.3619891405105591
      ],
      "min": [
        0.7475348711013794,
        0.13226920366287231
      ],
      "type": "VEC2"
    },
    {
      "bufferView": 0,
      "byteOffset": 2400,
      "componentType": 5125,
      "count": 72,
      "type": "SCALAR"
    },
    {
      "bufferView": 2,
      "byteOffset": 10824,
      "componentType": 5126,
      "count": 56,
      "max": [
        11.34664535522461,
        35.80133819580078,
        1.8616836071014404
      ],
      "min": [
        3.05470871925354,
        25.612590789794922,
        -3.8803582191467285
      ],
      "type": "VEC3"
    },
    {
      "bufferView": 2,
      "byteOffset": 11496,
      "componentType": 5126,
      "count": 56,
      "max": [
        0.9076070189476013,
        0.9698275327682495,
        0.9755579829216003
      ],
      "min": [
        -0.990249514579773,
        -0.9475786685943604,
        -0.9755582213401794
      ],
      "type": "VEC3"
    },
    {
      "bufferView": 3,
      "byteOffset": 7216,
      "componentType": 5126,
      "count": 56,
      "max": [
        0.9981153011322021,
        0.5822303891181946,
        0.9845296144485474,
        1.0
      ],
      "min": [
        -0.9975818395614624,
        -0.8551156520843506,
        -0.9970065355300903,
        1.0
      ],
      "type": "VEC4"
    },
    {
      "bufferView": 1,
      "byteOffset": 14432,
      "componentType": 5126,
      "count": 56,
      "max": [
        0.9898744225502014,
        0.6535054445266724
      ],
      "min": [
        0.5504657626152039,
        0.05437585711479187
      ],
      "type": "VEC2"
    },
    {
      "bufferView": 1,
      "byteOffset": 14880,
      "componentType": 5126,
      "count": 56,
      "max": [
        0.9898744225502014,
        0.6535054445266724
      ],
      "min": [
        0.5504657626152039,
        0.05437585711479187
      ],
      "type": "VEC2"
    },
    {
      "bufferView": 1,
      "byteOffset": 15328,
      "componentType": 5126,
      "count": 56,
      "max": [
        0.9898744225502014,
        0.6535054445266724
      ],
      "min": [
        0.5504657626152039,
        0.05437585711479187
      ],
      "type": "VEC2"
    },
    {
      "bufferView": 1,
      "byteOffset": 15776,
      "componentType": 5126,
      "count": 56,
      "max": [
        0.9898744225502014,
        0.6535054445266724
      ],
      "min": [
        0.5504657626152039,
        0.05437585711479187
      ],
      "type": "VEC2"
    },
    {
      "bufferView": 0,
      "byteOffset": 2688,
      "componentType": 5125,
      "count": 84,
      "type": "SCALAR"
    },
    {
      "bufferView": 2,
      "byteOffset": 12168,
      "componentType": 5126,
      "count": 68,
      "max": [
        5.933938980102539,
        16.545156478881836,
        6.1894450187683105
      ],
      "min": [
        0.08263587951660156,
        8.921780586242676,
        0.38872766494750977
      ],
      "type": "VEC3"
    },
    {
      "bufferView": 2,
      "byteOffset": 12984,
      "componentType": 5126,
      "count": 68,
      "max": [
        0.9885164499282837,
        1.0,
        0.9863768815994263
      ],
      "min": [
        -0.9957165122032166,
        0.0,
        -0.996878445148468
      ],
      "type": "VEC3"
    },
    {
      "bufferView": 3,
      "byteOffset": 8112,
      "componentType": 5126,
      "count": 68,
      "max": [
        0.986376941204071,
        0.0013502166839316487,
        0.9957156181335449,
        1.0
      ],
      "min": [
        -0.9968775510787964,
        -9.54550273490895e-07,
        -0.9885164499282837,
        1.0
      ],
      "type": "VEC4"
    },
    {
      "bufferView": 1,
      "byteOffset": 16224,
      "componentType": 5126,
      "count": 68,
      "max": [
        0.5032905340194702,
        0.8722336292266846
      ],
      "min": [
        0.00732421875,
        0.34885385632514954
      ],
      "type": "VEC2"
    },
    {
      "bufferView": 1,
      "byteOffset": 16768,
      "componentType": 5126,
      "count": 68,
      "max": [
        0.5032905340194702,
        0.8722336292266846
      ],
      "min": [
        0.00732421875,
        0.34885385632514954
      ],
      "type": "VEC2"
    },
    {
      "bufferView": 1,
      "byteOffset": 17312,
      "componentType": 5126,
      "count": 68,
      "max": [
        0.5032905340194702,
        0.8722336292266846
      ],
      "min": [
        0.00732421875,
        0.34885385632514954
      ],
      "type": "VEC2"
    },
    {
      "bufferView": 1,
      "byteOffset": 17856,
      "componentType": 5126,
      "count": 68,
      "max": [
        0.5032905340194702,
        0.8722336292266846
      ],
      "min": [
        0.00732421875,
        0.34885385632514954
      ],
      "type": "VEC2"
    },
    {
      "bufferView": 0,
      "byteOffset": 3024,
      "componentType": 5125,
      "count": 102,
      "type": "SCALAR"
    },
    {
      "bufferView": 2,
      "byteOffset": 13800,
      "componentType": 5126,
      "count": 416,
      "max": [
        11.164300918579102,
        13.074082374572754,
        11.164300918579102
      ],
      "min": [
        -11.164300918579102,
        5.872649192810059,
        -11.164300918579102
      ],
      "type": "VEC3"
    },
    {
      "bufferView": 2,
      "byteOffset": 18792,
      "componentType": 5126,
      "count": 416,
      "max": [
        0.9659258127212524,
        1.0,
        0.9659258127212524
      ],
      "min": [
        -0.9659258127212524,
        -0.8220847249031067,
        -0.9659258127212524
      ],
      "type": "VEC3"
    },
    {
      "bufferView": 3,
      "byteOffset": 9200,
      "componentType": 5126,
      "count": 416,
      "max": [
        0.9147471785545349,
        0.9996249675750732,
        0.999908983707428,
        1.0
      ],
      "min": [
        -0.9654998779296875,
        -0.9996047019958496,
        -0.8311699628829956,
        1.0
      ],
      "type": "VEC4"
    },
    {
      "bufferView": 1,
      "byteOffset": 18400,
      "componentType": 5126,
      "count": 416,
      "max": [
        0.7628440260887146,
        0.8290828466415405
      ],
      "min": [
        0.00732421875,
        0.007337143644690514
      ],
      "type": "VEC2"
    },
    {
      "bufferView": 1,
      "byteOffset": 21728,
      "componentType": 5126,
      "count": 416,
      "max": [
        0.7628440260887146,
        0.8290828466415405
      ],
      "min": [
        0.00732421875,
        0.007337143644690514
      ],
      "type": "VEC2"
    },
    {
      "bufferView": 1,
      "byteOffset": 25056,
      "componentType": 5126,
      "count": 416,
      "max": [
        0.7628440260887146,
        0.8290828466415405
      ],
      "min": [
        0.00732421875,
        0.007337143644690514
      ],
      "type": "VEC2"
    },
    {
      "bufferView": 1,
      "byteOffset": 28384,
      "componentType": 5126,
      "count": 416,
      "max": [
        0.7628440260887146,
        0.8290828466415405
      ],
      "min": [
        0.00732421875,
        0.007337143644690514
      ],
      "type": "VEC2"
    },
    {
      "bufferView": 0,
      "byteOffset": 3432,
      "componentType": 5125,
      "count": 612,
      "type": "SCALAR"
    },
    {
      "bufferView": 2,
      "byteOffset": 23784,
      "componentType": 5126,
      "count": 96,
      "max": [
        27.671457290649414,
        3.3467116355895996,
        10.91334056854248
      ],
      "min": [
        22.24858283996582,
        0.12935492396354675,
        2.371532440185547
      ],
      "type": "VEC3"
    },
    {
      "bufferView": 2,
      "byteOffset": 24936,
      "componentType": 5126,
      "count": 96,
      "max": [
        0.9954493045806885,
        0.9999678134918213,
        0.9931216835975647
      ],
      "min": [
        -0.9954493641853333,
        -0.9999678134918213,
        -0.9931216239929199
      ],
      "type": "VEC3"
    },
    {
      "bufferView": 3,
      "byteOffset": 15856,
      "componentType": 5126,
      "count": 96,
      "max": [
        0.9998021125793457,
        0.9909683465957642,
        0.9954410195350647,
        1.0
      ],
      "min": [
        -0.18571321666240692,
        -0.9900548458099365,
        -0.5182197093963623,
        1.0
      ],
      "type": "VEC4"
    },
    {
      "bufferView": 1,
      "byteOffset": 31712,
      "componentType": 5126,
      "count": 96,
      "max": [
        0.8587212562561035,
        0.7284702062606812
      ],
      "min": [
        0.5096471905708313,
        0.5623010396957397
      ],
      "type": "VEC2"
    },
    {
      "bufferView": 1,
      "byteOffset": 32480,
      "componentType": 5126,
      "count": 96,
      "max": [
        0.8587212562561035,
        0.7284702062606812
      ],
      "min": [
        0.5096471905708313,
        0.5623010396957397
      ],
      "type": "VEC2"
    },
    {
      "bufferView": 1,
      "byteOffset": 33248,
      "componentType": 5126,
      "count": 96,
      "max": [
        0.8587212562561035,
        0.7284702062606812
      ],
      "min": [
        0.5096471905708313,
        0.5623010396957397
      ],
      "type": "VEC2"
    },
    {
      "bufferView": 1,
      "byteOffset": 34016,
      "componentType": 5126,
      "count": 96,
      "max": [
        0.8587212562561035,
        0.7284702062606812
      ],
      "min": [
        0.5096471905708313,
        0.5623010396957397
      ],
      "type": "VEC2"
    },
    {
      "bufferView": 0,
      "byteOffset": 5880,
      "componentType": 5125,
      "count": 132,
      "type": "SCALAR"
    },
    {
      "bufferView": 2,
      "byteOffset": 26088,
      "componentType": 5126,
      "count": 115,
      "max": [
        16.31627655029297,
        6.000720977783203,
        16.31627655029297
      ],
      "min": [
        -16.31627655029297,
        3.526798963546753,
        -16.31627655029297
      ],
      "type": "VEC3"
    },
    {
      "bufferView": 2,
      "byteOffset": 27468,
      "componentType": 5126,
      "count": 115,
      "max": [
        0.9659258127212524,
        1.0,
        0.9659258723258972
      ],
      "min": [
        -0.9659258127212524,
        0.0,
        -0.9659258723258972
      ],
      "type": "VEC3"
    },
    {
      "bufferView": 3,
      "byteOffset": 17392,
      "componentType": 5126,
      "count": 115,
      "max": [
        0.6253114342689514,
        0.9998355507850647,
        0.9660933017730713,
        1.0
      ],
      "min": [
        -0.41014453768730164,
        -0.9998356103897095,
        -0.06473149359226227,
        1.0
      ],
      "type": "VEC4"
    },
    {
      "bufferView": 1,
      "byteOffset": 34784,
      "componentType": 5126,
      "count": 115,
      "max": [
        0.44072777032852173,
        0.44074082374572754
      ],
      "min": [
        0.00732421875,
        0.007337138056755066
      ],
      "type": "VEC2"
    },
    {
      "bufferView": 1,
      "byteOffset": 35704,
      "componentType": 5126,
      "count": 115,
      "max": [
        0.44072777032852173,
        0.44074082374572754
      ],
      "min": [
        0.00732421875,
        0.007337138056755066
      ],
      "type": "VEC2"
    },
    {
      "bufferView": 1,
      "byteOffset": 36624,
      "componentType": 5126,
      "count": 115,
      "max": [
        0.44072777032852173,
        0.44074082374572754
      ],
      "min": [
        0.00732421875,
        0.007337138056755066
      ],
      "type": "VEC2"
    },
    {
      "bufferView": 1,
      "byteOffset": 37544,
      "componentType": 5126,
      "count": 115,
      "max": [
        0.44072777032852173,
        0.44074082374572754
      ],
      "min": [
        0.00732421875,
        0.007337138056755066
      ],
      "type": "VEC2"
    },
    {
      "bufferView": 0,
      "byteOffset": 6408,
      "componentType": 5125,
      "count": 180,
      "type": "SCALAR"
    },
    {
      "bufferView": 2,
      "byteOffset": 28848,
      "componentType": 5126,
      "count": 852,
      "max": [
        7.17390775680542,
        26.756662368774414,
        11.358248710632324
      ],
      "min": [
        -9.78952407836914,
        9.762840270996094,
        -9.191766738891602
      ],
      "type": "VEC3"
    },
    {
      "bufferView": 2,
      "byteOffset": 39072,
      "componentType": 5126,
      "count": 852,
      "max": [
        0.992848813533783,
        0.9981412291526794,
        0.997586727142334
      ],
      "min": [
        -0.9917430281639099,
        -0.9928017258644104,
        -0.997005045413971
      ],
      "type": "VEC3"
    },
    {
      "bufferView": 3,
      "byteOffset": 19232,
      "componentType": 5126,
      "count": 852,
      "max": [
        0.9711291790008545,
        0.8127765655517578,
        0.9621057510375977,
        1.0
      ],
      "min": [
        -0.9985160827636719,
        -0.9985677003860474,
        -0.9972625374794006,
        1.0
      ],
      "type": "VEC4"
    },
    {
      "bufferView": 1,
      "byteOffset": 38464,
      "componentType": 5126,
      "count": 852,
      "max": [
        0.7550766468048096,
        0.9574277400970459
      ],
      "min": [
        0.07108604907989502,
        0.8609622120857239
      ],
      "type": "VEC2"
    },
    {
      "bufferView": 1,
      "byteOffset": 45280,
      "componentType": 5126,
      "count": 852,
      "max": [
        0.7550766468048096,
        0.9574277400970459
      ],
      "min": [
        0.07108604907989502,
        0.8609622120857239
      ],
      "type": "VEC2"
    },
    {
      "bufferView": 1,
      "byteOffset": 52096,
      "componentType": 5126,
      "count": 852,
      "max": [
        0.7550766468048096,
        0.9574277400970459
      ],
      "min": [
        0.07108604907989502,
        0.8609622120857239
      ],
      "type": "VEC2"
    },
    {
      "bufferView": 1,
      "byteOffset": 58912,
      "componentType": 5126,
      "count": 852,
      "max": [
        0.7550766468048096,
        0.9574277400970459
      ],
      "min": [
        0.07108604907989502,
        0.8609622120857239
      ],
      "type": "VEC2"
    },
    {
      "bufferView": 0,
      "byteOffset": 7128,
      "componentType": 5125,
      "count": 1260,
      "type": "SCALAR"
    },
    {
      "bufferView": 2,
      "byteOffset": 49296,
      "componentType": 5126,
      "count": 50,
      "max": [
        3.224374771118164,
        42.49976348876953,
        2.4239628314971924
      ],
      "min": [
        -3.0912280082702637,
        27.200672149658203,
        -4.61154317855835
      ],
      "type": "VEC3"
    },
    {
      "bufferView": 2,
      "byteOffset": 49896,
      "componentType": 5126,
      "count": 50,
      "max": [
        0.999464750289917,
        0.9734718799591064,
        0.9732303619384766
      ],
      "min": [
        -0.9969552159309387,
        -0.9734715819358826,
        -0.9732303619384766
      ],
      "type": "VEC3"
    },
    {
      "bufferView": 3,
      "byteOffset": 32864,
      "componentType": 5126,
      "count": 50,
      "max": [
        0.9997323155403137,
        0.18867021799087524,
        0.9847079515457153,
        1.0
      ],
      "min": [
        -0.9993436932563782,
        -0.630333662033081,
        -0.9929683804512024,
        1.0
      ],
      "type": "VEC4"
    },
    {
      "bufferView": 1,
      "byteOffset": 65728,
      "componentType": 5126,
      "count": 50,
      "max": [
        0.975406289100647,
        0.5556609034538269
      ],
      "min": [
        0.6898561120033264,
        0.3017716705799103
      ],
      "type": "VEC2"
    },
    {
      "bufferView": 1,
      "byteOffset": 66128,
      "componentType": 5126,
      "count": 50,
      "max": [
        0.975406289100647,
        0.5556609034538269
      ],
      "min": [
        0.6898561120033264,
        0.3017716705799103
      ],
      "type": "VEC2"
    },
    {
      "bufferView": 1,
      "byteOffset": 66528,
      "componentType": 5126,
      "count": 50,
      "max": [
        0.975406289100647,
        0.5556609034538269
      ],
      "min": [
        0.6898561120033264,
        0.3017716705799103
      ],
      "type": "VEC2"
    },
    {
      "bufferView": 1,
      "byteOffset": 66928,
      "componentType": 5126,
      "count": 50,
      "max": [
        0.975406289100647,
        0.5556609034538269
      ],
      "min": [
        0.6898561120033264,
        0.3017716705799103
      ],
      "type": "VEC2"
    },
    {
      "bufferView": 0,
      "byteOffset": 12168,
      "componentType": 5125,
      "count": 72,
      "type": "SCALAR"
    },
    {
      "bufferView": 2,
      "byteOffset": 50496,
      "componentType": 5126,
      "count": 24,
      "max": [
        19.18085289001465,
        2.9505581855773926,
        22.316308975219727
      ],
      "min": [
        11.213327407836914,
        0.006409049034118652,
        18.18687629699707
      ],
      "type": "VEC3"
    },
    {
      "bufferView": 2,
      "byteOffset": 50784,
      "componentType": 5126,
      "count": 24,
      "max": [
        0.9998959898948669,
        0.999934732913971,
        0.9999265074729919
      ],
      "min": [
        -0.9998959898948669,
        -0.9999346733093262,
        -0.9999264478683472
      ],
      "type": "VEC3"
    },
    {
      "bufferView": 3,
      "byteOffset": 33664,
      "componentType": 5126,
      "count": 24,
      "max": [
        0.9999220371246338,
        0.999934732913971,
        0.9999265670776367,
        1.0
      ],
      "min": [
        -0.00975602027028799,
        -0.999934732913971,
        -0.00774267315864563,
        1.0
      ],
      "type": "VEC4"
    },
    {
      "bufferView": 1,
      "byteOffset": 67328,
      "componentType": 5126,
      "count": 24,
      "max": [
        0.9879721403121948,
        0.7294531464576721
      ],
      "min": [
        0.10640601068735123,
        0.5224469304084778
      ],
      "type": "VEC2"
    },
    {
      "bufferView": 1,
      "byteOffset": 67520,
      "componentType": 5126,
      "count": 24,
      "max": [
        0.9879721403121948,
        0.7294531464576721
      ],
      "min": [
        0.10640601068735123,
        0.5224469304084778
      ],
      "type": "VEC2"
    },
    {
      "bufferView": 1,
      "byteOffset": 67712,
      "componentType": 5126,
      "count": 24,
      "max": [
        0.9879721403121948,
        0.7294531464576721
      ],
      "min": [
        0.10640601068735123,
        0.5224469304084778
      ],
      "type": "VEC2"
    },
    {
      "bufferView": 1,
      "byteOffset": 67904,
      "componentType": 5126,
      "count": 24,
      "max": [
        0.9879721403121948,
        0.7294531464576721
      ],
      "min": [
        0.10640601068735123,
        0.5224469304084778
      ],
      "type": "VEC2"
    },
    {
      "bufferView": 0,
      "byteOffset": 12456,
      "componentType": 5125,
      "count": 36,
      "type": "SCALAR"
    },
    {
      "bufferView": 2,
      "byteOffset": 51072,
      "componentType": 5126,
      "count": 50,
      "max": [
        20.798362731933594,
        30.138797760009766,
        -0.1818486452102661
      ],
      "min": [
        9.892721176147461,
        18.631614685058594,
        -7.938377857208252
      ],
      "type": "VEC3"
    },
    {
      "bufferView": 2,
      "byteOffset": 51672,
      "componentType": 5126,
      "count": 50,
      "max": [
        0.9087276458740234,
        0.6851855516433716,
        0.9037805795669556
      ],
      "min": [
        -0.6934330463409424,
        -0.8095987439155579,
        -0.9037805199623108
      ],
      "type": "VEC3"
    },
    {
      "bufferView": 3,
      "byteOffset": 34048,
      "componentType": 5126,
      "count": 50,
      "max": [
        0.6748542189598083,
        0.7099907994270325,
        0.9225008487701416,
        1.0
      ],
      "min": [
        -0.6654706597328186,
        -0.7486739158630371,
        -0.9423317313194275,
        1.0
      ],
      "type": "VEC4"
    },
    {
      "bufferView": 1,
      "byteOffset": 68096,
      "componentType": 5126,
      "count": 50,
      "max": [
        0.975406289100647,
        0.5556609034538269
      ],
      "min": [
        0.6898561120033264,
        0.3017716705799103
      ],
      "type": "VEC2"
    },
    {
      "bufferView": 1,
      "byteOffset": 68496,
      "componentType": 5126,
      "count": 50,
      "max": [
        0.975406289100647,
        0.5556609034538269
      ],
      "min": [
        0.6898561120033264,
        0.3017716705799103
      ],
      "type": "VEC2"
    },
    {
      "bufferView": 1,
      "byteOffset": 68896,
      "componentType": 5126,
      "count": 50,
      "max": [
        0.975406289100647,
        0.5556609034538269
      ],
      "min": [
        0.6898561120033264,
        0.3017716705799103
      ],
      "type": "VEC2"
    },
    {
      "bufferView": 1,
      "byteOffset": 69296,
      "componentType": 5126,
      "count": 50,
      "max": [
        0.975406289100647,
        0.5556609034538269
      ],
      "min": [
        0.6898561120033264,
        0.3017716705799103
      ],
      "type": "VEC2"
    },
    {
      "bufferView": 0,
      "byteOffset": 12600,
      "componentType": 5125,
      "count": 72,
      "type": "SCALAR"
    },
    {
      "bufferView": 2,
      "byteOffset": 52272,
      "componentType": 5126,
      "count": 50,
      "max": [
        -10.162591934204102,
        31.816368103027344,
        0.5285193920135498
      ],
      "min": [
        -21.26285171508789,
        21.45794677734375,
        -2.5714633464813232
      ],
      "type": "VEC3"
    },
    {
      "bufferView": 2,
      "byteOffset": 52872,
      "componentType": 5126,
      "count": 50,
      "max": [
        0.7891270518302917,
        0.7477642893791199,
        0.9987093210220337
      ],
      "min": [
        -0.9923666715621948,
        -0.8656187653541565,
        -0.9987093210220337
      ],
      "type": "VEC3"
    },
    {
      "bufferView": 3,
      "byteOffset": 34848,
      "componentType": 5126,
      "count": 50,
      "max": [
        0.6266420483589172,
        0.7776640057563782,
        0.9977818131446838,
        -1.0
      ],
      "min": [
        -0.6384629011154175,
        -0.7890048027038574,
        -0.9973882436752319,
        -1.0
      ],
      "type": "VEC4"
    },
    {
      "bufferView": 1,
      "byteOffset": 69696,
      "componentType": 5126,
      "count": 50,
      "max": [
        0.975406289100647,
        0.5556609034538269
      ],
      "min": [
        0.6898561120033264,
        0.3017716705799103
      ],
      "type": "VEC2"
    },
    {
      "bufferView": 1,
      "byteOffset": 70096,
      "componentType": 5126,
      "count": 50,
      "max": [
        0.975406289100647,
        0.5556609034538269
      ],
      "min": [
        0.6898561120033264,
        0.3017716705799103
      ],
      "type": "VEC2"
    },
    {
      "bufferView": 1,
      "byteOffset": 70496,
      "componentType": 5126,
      "count": 50,
      "max": [
        0.975406289100647,
        0.5556609034538269
      ],
      "min": [
        0.6898561120033264,
        0.3017716705799103
      ],
      "type": "VEC2"
    },
    {
      "bufferView": 1,
      "byteOffset": 70896,
      "componentType": 5126,
      "count": 50,
      "max": [
        0.975406289100647,
        0.5556609034538269
      ],
      "min": [
        0.6898561120033264,
        0.3017716705799103
      ],
      "type": "VEC2"
    },
    {
      "bufferView": 0,
      "byteOffset": 12888,
      "componentType": 5125,
      "count": 72,
      "type": "SCALAR"
    },
    {
      "bufferView": 2,
      "byteOffset": 53472,
      "componentType": 5126,
      "count": 852,
      "max": [
        9.736747741699219,
        31.527881622314453,
        9.118009567260742
      ],
      "min": [
        -6.6991143226623535,
        9.762840270996094,
        -10.450474739074707
      ],
      "type": "VEC3"
    },
    {
      "bufferView": 2,
      "byteOffset": 63696,
      "componentType": 5126,
      "count": 852,
      "max": [
        0.9995757937431335,
        0.9979501366615295,
        0.9995774626731873
      ],
      "min": [
        -0.9960806965827942,
        -0.998647153377533,
        -0.9997789859771729
      ],
      "type": "VEC3"
    },
    {
      "bufferView": 3,
      "byteOffset": 35648,
      "componentType": 5126,
      "count": 852,
      "max": [
        0.9816208481788635,
        0.780823290348053,
        0.9922098517417908,
        1.0
      ],
      "min": [
        -0.9999324083328247,
        -0.9992877840995789,
        -0.9988794922828674,
        1.0
      ],
      "type": "VEC4"
    },
    {
      "bufferView": 1,
      "byteOffset": 71296,
      "componentType": 5126,
      "count": 852,
      "max": [
        0.7550766468048096,
        0.9574277400970459
      ],
      "min": [
        0.07108604907989502,
        0.8609622120857239
      ],
      "type": "VEC2"
    },
    {
      "bufferView": 1,
      "byteOffset": 78112,
      "componentType": 5126,
      "count": 852,
      "max": [
        0.7550766468048096,
        0.9574277400970459
      ],
      "min": [
        0.07108604907989502,
        0.8609622120857239
      ],
      "type": "VEC2"
    },
    {
      "bufferView": 1,
      "byteOffset": 84928,
      "componentType": 5126,
      "count": 852,
      "max": [
        0.7550766468048096,
        0.9574277400970459
      ],
      "min": [
        0.07108604907989502,
        0.8609622120857239
      ],
      "type": "VEC2"
    },
    {
      "bufferView": 1,
      "byteOffset": 91744,
      "componentType": 5126,
      "count": 852,
      "max": [
        0.7550766468048096,
        0.9574277400970459
      ],
      "min": [
        0.07108604907989502,
        0.8609622120857239
      ],
      "type": "VEC2"
    },
    {
      "bufferView": 0,
      "byteOffset": 13176,
      "componentType": 5125,
      "count": 1260,
      "type": "SCALAR"
    },
    {
      "bufferView": 2,
      "byteOffset": 73920,
      "componentType": 5126,
      "count": 24,
      "max": [
        19.18085289001465,
        2.9505581855773926,
        22.316308975219727
      ],
      "min": [
        11.213327407836914,
        0.006409049034118652,
        18.18687629699707
      ],
      "type": "VEC3"
    },
    {
      "bufferView": 2,
      "byteOffset": 74208,
      "componentType": 5126,
      "count": 24,
      "max": [
        0.9998959898948669,
        0.999934732913971,
        0.9999265074729919
      ],
      "min": [
        -0.9998959898948669,
        -0.9999346733093262,
        -0.9999264478683472
      ],
      "type": "VEC3"
    },
    {
      "bufferView": 3,
      "byteOffset": 49280,
      "componentType": 5126,
      "count": 24,
      "max": [
        0.9999220371246338,
        0.999934732913971,
        0.9999265670776367,
        1.0
      ],
      "min": [
        -0.00975602027028799,
        -0.999934732913971,
        -0.00774267315864563,
        1.0
      ],
      "type": "VEC4"
    },
    {
      "bufferView": 1,
      "byteOffset": 98560,
      "componentType": 5126,
      "count": 24,
      "max": [
        0.9879721403121948,
        0.7294531464576721
      ],
      "min": [
        0.10640601068735123,
        0.5224469304084778
      ],
      "type": "VEC2"
    },
    {
      "bufferView": 1,
      "byteOffset": 98752,
      "componentType": 5126,
      "count": 24,
      "max": [
        0.9879721403121948,
        0.7294531464576721
      ],
      "min": [
        0.10640601068735123,
        0.5224469304084778
      ],
      "type": "VEC2"
    },
    {
      "bufferView": 1,
      "byteOffset": 98944,
      "componentType": 5126,
      "count": 24,
      "max": [
        0.9879721403121948,
        0.7294531464576721
      ],
      "min": [
        0.10640601068735123,
        0.5224469304084778
      ],
      "type": "VEC2"
    },
    {
      "bufferView": 1,
      "byteOffset": 99136,
      "componentType": 5126,
      "count": 24,
      "max": [
        0.9879721403121948,
        0.7294531464576721
      ],
      "min": [
        0.10640601068735123,
        0.5224469304084778
      ],
      "type": "VEC2"
    },
    {
      "bufferView": 0,
      "byteOffset": 18216,
      "componentType": 5125,
      "count": 36,
      "type": "SCALAR"
    },
    {
      "bufferView": 2,
      "byteOffset": 74496,
      "componentType": 5126,
      "count": 24,
      "max": [
        19.18085289001465,
        2.9505581855773926,
        22.316308975219727
      ],
      "min": [
        11.213327407836914,
        0.006409049034118652,
        18.18687629699707
      ],
      "type": "VEC3"
    },
    {
      "bufferView": 2,
      "byteOffset": 74784,
      "componentType": 5126,
      "count": 24,
      "max": [
        0.9998959898948669,
        0.999934732913971,
        0.9999265074729919
      ],
      "min": [
        -0.9998959898948669,
        -0.9999346733093262,
        -0.9999264478683472
      ],
      "type": "VEC3"
    },
    {
      "bufferView": 3,
      "byteOffset": 49664,
      "componentType": 5126,
      "count": 24,
      "max": [
        0.9999220371246338,
        0.999934732913971,
        0.9999265670776367,
        1.0
      ],
      "min": [
        -0.00975602027028799,
        -0.999934732913971,
        -0.00774267315864563,
        1.0
      ],
      "type": "VEC4"
    },
    {
      "bufferView": 1,
      "byteOffset": 99328,
      "componentType": 5126,
      "count": 24,
      "max": [
        0.9879721403121948,
        0.7294531464576721
      ],
      "min": [
        0.10640601068735123,
        0.5224469304084778
      ],
      "type": "VEC2"
    },
    {
      "bufferView": 1,
      "byteOffset": 99520,
      "componentType": 5126,
      "count": 24,
      "max": [
        0.9879721403121948,
        0.7294531464576721
      ],
      "min": [
        0.10640601068735123,
        0.5224469304084778
      ],
      "type": "VEC2"
    },
    {
      "bufferView": 1,
      "byteOffset": 99712,
      "componentType": 5126,
      "count": 24,
      "max": [
        0.9879721403121948,
        0.7294531464576721
      ],
      "min": [
        0.10640601068735123,
        0.5224469304084778
      ],
      "type": "VEC2"
    },
    {
      "bufferView": 1,
      "byteOffset": 99904,
      "componentType": 5126,
      "count": 24,
      "max": [
        0.9879721403121948,
        0.7294531464576721
      ],
      "min": [
        0.10640601068735123,
        0.5224469304084778
      ],
      "type": "VEC2"
    },
    {
      "bufferView": 0,
      "byteOffset": 18360,
      "componentType": 5125,
      "count": 36,
      "type": "SCALAR"
    },
    {
      "bufferView": 2,
      "byteOffset": 75072,
      "componentType": 5126,
      "count": 96,
      "max": [
        27.671457290649414,
        3.3467116355895996,
        10.91334056854248
      ],
      "min": [
        22.24858283996582,
        0.12935492396354675,
        2.371532440185547
      ],
      "type": "VEC3"
    },
    {
      "bufferView": 2,
      "byteOffset": 76224,
      "componentType": 5126,
      "count": 96,
      "max": [
        0.9954493045806885,
        0.9999678134918213,
        0.9931216835975647
      ],
      "min": [
        -0.9954493641853333,
        -0.9999678134918213,
        -0.9931216239929199
      ],
      "type": "VEC3"
    },
    {
      "bufferView": 3,
      "byteOffset": 50048,
      "componentType": 5126,
      "count": 96,
      "max": [
        0.9998021125793457,
        0.9909683465957642,
        0.9954410195350647,
        1.0
      ],
      "min": [
        -0.18571321666240692,
        -0.9900548458099365,
        -0.5182197093963623,
        1.0
      ],
      "type": "VEC4"
    },
    {
      "bufferView": 1,
      "byteOffset": 100096,
      "componentType": 5126,
      "count": 96,
      "max": [
        0.8587212562561035,
        0.7284702062606812
      ],
      "min": [
        0.5096471905708313,
        0.5623010396957397
      ],
      "type": "VEC2"
    },
    {
      "bufferView": 1,
      "byteOffset": 100864,
      "componentType": 5126,
      "count": 96,
      "max": [
        0.8587212562561035,
        0.7284702062606812
      ],
      "min": [
        0.5096471905708313,
        0.5623010396957397
      ],
      "type": "VEC2"
    },
    {
      "bufferView": 1,
      "byteOffset": 101632,
      "componentType": 5126,
      "count": 96,
      "max": [
        0.8587212562561035,
        0.7284702062606812
      ],
      "min": [
        0.5096471905708313,
        0.5623010396957397
      ],
      "type": "VEC2"
    },
    {
      "bufferView": 1,
      "byteOffset": 102400,
      "componentType": 5126,
      "count": 96,
      "max": [
        0.8587212562561035,
        0.7284702062606812
      ],
      "min": [
        0.5096471905708313,
        0.5623010396957397
      ],
      "type": "VEC2"
    },
    {
      "bufferView": 0,
      "byteOffset": 18504,
      "componentType": 5125,
      "count": 132,
      "type": "SCALAR"
    }
  ],
  "asset": {
    "extras": {
      "author": "Duc Tran (https://sketchfab.com/anhductran)",
      "license": "CC-BY-4.0 (http://creativecommons.org/licenses/by/4.0/)",
      "source": "https://sketchfab.com/3d-models/low-poly-abandoned-fountain-with-rune-stones-28dd56b03fc147749f202bb8aabfa482",
      "title": "Low poly Abandoned Fountain with Rune Stones"
    },
    "generator": "Sketchfab-15.37.0",
    "version": "2.0"
  },
  "bufferViews": [
    {
      "buffer": 0,
      "byteLength": 19032,
      "name": "floatBufferViews",
      "target": 34963
    },
    {
      "buffer": 0,
      "byteLength": 103168,
      "byteOffset": 19032,
      "byteStride": 8,
      "name": "floatBufferViews",
      "target": 34962
    },
    {
      "buffer": 0,
      "byteLength": 77376,
      "byteOffset": 122200,
      "byteStride": 12,
      "name": "floatBufferViews",
      "target": 34962
    },
    {
      "buffer": 0,
      "byteLength": 51584,
      "byteOffset": 199576,
      "byteStride": 16,
      "name": "floatBufferViews",
      "target": 34962
    }
  ],
  "buffers": [
    {
      "byteLength": 251160,
      "uri": "fountain.bin"
    }
  ],
  "extensionsUsed": [
    "KHR_materials_emissive_strength"
  ],
  "images": [
    {
      "uri": "textures/Foutain_baseColor.jpeg"
    },
    {
      "uri": "textures/Foutain_metallicRoughness.png"
    },
    {
      "uri": "textures/Foutain_emissive.jpeg"
    },
    {
      "uri": "textures/Foutain_normal.png"
    }
  ],
  "materials": [
    {
      "doubleSided": true,
      "emissiveFactor": [
        1.0,
        1.0,
        1.0
      ],
      "emissiveTexture": {
        "index": 2
      },
      "extensions": {
        "KHR_materials_emissive_strength": {
          "emissiveStrength": 1.4270830154418945
        }
      },
      "name": "Foutain",
      "normalTexture": {
        "index": 3
      },
      "pbrMetallicRoughness": {
        "baseColorTexture": {
          "index": 0
        },
        "metallicRoughnessTexture": {
          "index": 1
        }
      }
    }
  ],
  "meshes": [
    {
      "name": "pCube6_Foutain_0",
      "primitives": [
        {
          "attributes": {
            "NORMAL": 1,
            "POSITION": 0,
            "TANGENT": 2,
            "TEXCOORD_0": 3,
            "TEXCOORD_1": 4,
            "TEXCOORD_2": 5,
            "TEXCOORD_3": 6
          },
          "indices": 7,
          "material": 0,
          "mode": 4
        }
      ]
    },
    {
      "name": "pCylinder2_low1_Foutain_0",
      "primitives": [
        {
          "attributes": {
            "NORMAL": 9,
            "POSITION": 8,
            "TANGENT": 10,
            "TEXCOORD_0": 11,
            "TEXCOORD_1": 12,
            "TEXCOORD_2": 13,
            "TEXCOORD_3": 14
          },
          "indices": 15,
          "material": 0,
          "mode": 4
        }
      ]
    },
    {
      "name": "pCube3_low1_Foutain_0",
      "primitives": [
        {
          "attributes": {
            "NORMAL": 17,
            "POSITION": 16,
            "TANGENT": 18,
            "TEXCOORD_0": 19,
            "TEXCOORD_1": 20,
            "TEXCOORD_2": 21,
            "TEXCOORD_3": 22
          },
          "indices": 23,
          "material": 0,
          "mode": 4
        }
      ]
    },
    {
      "name": "tru2_low_Foutain_0",
      "primitives": [
        {
          "attributes": {
            "NORMAL": 25,
            "POSITION": 24,
            "TANGENT": 26,
            "TEXCOORD_0": 27,
            "TEXCOORD_1": 28,
            "TEXCOORD_2": 29,
            "TEXCOORD_3": 30
          },
          "indices": 31,
          "material": 0,
          "mode": 4
        }
      ]
    },
    {
      "name": "tru1_low_Foutain_0",
      "primitives": [
        {
          "attributes": {
            "NORMAL": 33,
            "POSITION": 32,
            "TANGENT": 34,
            "TEXCOORD_0": 35,
            "TEXCOORD_1": 36,
            "TEXCOORD_2": 37,
            "TEXCOORD_3": 38
          },
          "indices": 39,
          "material": 0,
          "mode": 4
        }
      ]
    },
    {
      "name": "pCube3_low_Foutain_0",
      "primitives": [
        {
          "attributes": {
            "NORMAL": 41,
            "POSITION": 40,
            "TANGENT": 42,
            "TEXCOORD_0": 43,
            "TEXCOORD_1": 44,
            "TEXCOORD_2": 45,
            "TEXCOORD_3": 46
          },
          "indices": 47,
          "material": 0,
          "mode": 4
        }
      ]
    },
    {
      "name": "pCube1_low_Foutain_0",
      "primitives": [
        {
          "attributes": {
            "NORMAL": 49,
            "POSITION": 48,
            "TANGENT": 50,
            "TEXCOORD_0": 51,
            "TEXCOORD_1": 52,
            "TEXCOORD_2": 53,
            "TEXCOORD_3": 54
          },
          "indices": 55,
          "material": 0,
          "mode": 4
        }
      ]
    },
    {
      "name": "tru3_low_Foutain_0",
      "primitives": [
        {
          "attributes": {
            "NORMAL": 57,
            "POSITION": 56,
            "TANGENT": 58,
            "TEXCOORD_0": 59,
            "TEXCOORD_1": 60,
            "TEXCOORD_2": 61,
            "TEXCOORD_3": 62
          },
          "indices": 63,
          "material": 0,
          "mode": 4
        }
      ]
    },
    {
      "name": "pCylinder1_low_Foutain_0",
      "primitives": [
        {
          "attributes": {
            "NORMAL": 65,
            "POSITION": 64,
            "TANGENT": 66,
            "TEXCOORD_0": 67,
            "TEXCOORD_1": 68,
            "TEXCOORD_2": 69,
            "TEXCOORD_3": 70
          },
          "indices": 71,
          "material": 0,
          "mode": 4
        }
      ]
    },
    {
      "name": "pCube4_low_Foutain_0",
      "primitives": [
        {
          "attributes": {
            "NORMAL": 73,
            "POSITION": 72,
            "TANGENT": 74,
            "TEXCOORD_0": 75,
            "TEXCOORD_1": 76,
            "TEXCOORD_2": 77,
            "TEXCOORD_3": 78
          },
          "indices": 79,
          "material": 0,
          "mode": 4
        }
      ]
    },
    {
      "name": "pCylinder2_low_Foutain_0",
      "primitives": [
        {
          "attributes": {
            "NORMAL": 81,
            "POSITION": 80,
            "TANGENT": 82,
            "TEXCOORD_0": 83,
            "TEXCOORD_1": 84,
            "TEXCOORD_2": 85,
            "TEXCOORD_3": 86
          },
          "indices": 87,
          "material": 0,
          "mode": 4
        }
      ]
    },
    {
      "name": "tree_low_Foutain_0",
      "primitives": [
        {
          "attributes": {
            "NORMAL": 89,
            "POSITION": 88,
            "TANGENT": 90,
            "TEXCOORD_0": 91,
            "TEXCOORD_1": 92,
            "TEXCOORD_2": 93,
            "TEXCOORD_3": 94
          },
          "indices": 95,
          "material": 0,
          "mode": 4
        }
      ]
    },
    {
      "name": "pCube2_low_Foutain_0",
      "primitives": [
        {
          "attributes": {
            "NORMAL": 97,
            "POSITION": 96,
            "TANGENT": 98,
            "TEXCOORD_0": 99,
            "TEXCOORD_1": 100,
            "TEXCOORD_2": 101,
            "TEXCOORD_3": 102
          },
          "indices": 103,
          "material": 0,
          "mode": 4
        }
      ]
    },
    {
      "name": "pCube5_low4_Foutain_0",
      "primitives": [
        {
          "attributes": {
            "NORMAL": 105,
            "POSITION": 104,
            "TANGENT": 106,
            "TEXCOORD_0": 107,
            "TEXCOORD_1": 108,
            "TEXCOORD_2": 109,
            "TEXCOORD_3": 110
          },
          "indices": 111,
          "material": 0,
          "mode": 4
        }
      ]
    },
    {
      "name": "pCube2_low2_Foutain_0",
      "primitives": [
        {
          "attributes": {
            "NORMAL": 113,
            "POSITION": 112,
            "TANGENT": 114,
            "TEXCOORD_0": 115,
            "TEXCOORD_1": 116,
            "TEXCOORD_2": 117,
            "TEXCOORD_3": 118
          },
          "indices": 119,
          "material": 0,
          "mode": 4
        }
      ]
    },
    {
      "name": "pCube2_low1_Foutain_0",
      "primitives": [
        {
          "attributes": {
            "NORMAL": 121,
            "POSITION": 120,
            "TANGENT": 122,
            "TEXCOORD_0": 123,
            "TEXCOORD_1": 124,
            "TEXCOORD_2": 125,
            "TEXCOORD_3": 126
          },
          "indices": 127,
          "material": 0,
          "mode": 4
        }
      ]
    },
    {
      "name": "tree_low1_Foutain_0",
      "primitives": [
        {
          "attributes": {
            "NORMAL": 129,
            "POSITION": 128,
            "TANGENT": 130,
            "TEXCOORD_0": 131,
            "TEXCOORD_1": 132,
            "TEXCOORD_2": 133,
            "TEXCOORD_3": 134
          },
          "indices": 135,
          "material": 0,
          "mode": 4
        }
      ]
    },
    {
      "name": "pCube5_low5_Foutain_0",
      "primitives": [
        {
          "attributes": {
            "NORMAL": 137,
            "POSITION": 136,
            "TANGENT": 138,
            "TEXCOORD_0": 139,
            "TEXCOORD_1": 140,
            "TEXCOORD_2": 141,
            "TEXCOORD_3": 142
          },
          "indices": 143,
          "material": 0,
          "mode": 4
        }
      ]
    },
    {
      "name": "pCube5_low6_Foutain_0",
      "primitives": [
        {
          "attributes": {
            "NORMAL": 145,
            "POSITION": 144,
            "TANGENT": 146,
            "TEXCOORD_0": 147,
            "TEXCOORD_1": 148,
            "TEXCOORD_2": 149,
            "TEXCOORD_3": 150
          },
          "indices": 151,
          "material": 0,
          "mode": 4
        }
      ]
    },
    {
      "name": "pCube4_low1_Foutain_0",
      "primitives": [
        {
          "attributes": {
            "NORMAL": 153,
            "POSITION": 152,
            "TANGENT": 154,
            "TEXCOORD_0": 155,
            "TEXCOORD_1": 156,
            "TEXCOORD_2": 157,
            "TEXCOORD_3": 158
          },
          "indices": 159,
          "material": 0,
          "mode": 4
        }
      ]
    }
  ],
  "nodes": [
    {
      "children": [
        1
      ],
      "matrix": [
        1.0,
        0.0,
        0.0,
        0.0,
        0.0,
        2.220446049250313e-16,
        -1.0,
        0.0,
        0.0,
        1.0,
        2.220446049250313e-16,
        0.0,
        0.0,
        0.0,
        0.0,
        1.0
      ],
      "name": "Sketchfab_model"
    },
    {
      "children": [
        2
      ],
      "matrix": [
        0.009999999776482582,
        0.0,
        0.0,
        0.0,
        0.0,
        0.0,
        0.009999999776482582,
        0.0,
        0.0,
        -0.009999999776482582,
        0.0,
        0.0,
        0.0,
        0.0,
        0.0,
        1.0
      ],
      "name": "78a7de10fc144777a3eb1e4d2a4acc34.fbx"
    },
    {
      "children": [
        3
      ],
      "name": "RootNode"
    },
    {
      "children": [
        4,
        6,
        8,
        10,
        12,
        14,
        16,
        18,
        20,
        22,
        24,
        26,
        28,
        30,
        32,
        34,
        36,
        38,
        40,
        42
      ],
      "name": "FountainRoot"
    },
    {
      "children": [
        5
      ],
      "name": "pCube6"
    },
    {
      "mesh": 0,
      "name": "pCube6_Foutain_0"
    },
    {
      "children": [
        7
      ],
      "matrix": [
        1.0,
        0.0,
        0.0,
        0.0,
        0.0,
        1.0,
        0.0,
        0.0,
        0.0,
        0.0,
        1.0,
        0.0,
        0.0,
        -0.2756060063838959,
        0.0,
        1.0
      ],
      "name": "pCylinder2_low1"
    },
    {
      "mesh": 1,
      "name": "pCylinder2_low1_Foutain_0"
    },
    {
      "children": [
        9
      ],
      "matrix": [
        1.0,
        0.0,
        0.0,
        0.0,
        0.0,
        1.0,
        0.0,
        0.0,
        0.0,
        0.0,
        1.0,
        0.0,
        0.0,
        -0.13689656555652618,
        0.0,
        1.0
      ],
      "name": "pCube3_low1"
    },
    {
      "mesh": 2,
      "name": "pCube3_low1_Foutain_0"
    },
    {
      "children": [
        11
      ],
      "matrix": [
        1.0,
        0.0,
        0.0,
        0.0,
        0.0,
        1.0,
        0.0,
        0.0,
        0.0,
        0.0,
        1.0,
        0.0,
        0.0,
        -0.13689656555652618,
        0.0,
        1.0
      ],
      "name": "tru2_low"
    },
    {
      "mesh": 3,
      "name": "tru2_low_Foutain_0"
    },
    {
      "children": [
        13
      ],
      "matrix": [
        1.0,
        0.0,
        0.0,
        0.0,
        0.0,
        1.0,
        0.0,
        0.0,
        0.0,
        0.0,
        1.0,
        0.0,
        0.0,
        -0.13689656555652618,
        0.0,
        1.0
      ],
      "name": "tru1_low"
    },
    {
      "mesh": 4,
      "name": "tru1_low_Foutain_0"
    },
    {
      "children": [
        15
      ],
      "matrix": [
        1.0,
        0.0,
        0.0,
        0.0,
        0.0,
        1.0,
        0.0,
        0.0,
        0.0,
        0.0,
        1.0,
        0.0,
        0.0,
        -0.13689656555652618,
        0.0,
        1.0
      ],
      "name": "pCube3_low"
    },
    {
      "mesh": 5,
      "name": "pCube3_low_Foutain_0"
    },
    {
      "children": [
        17
      ],
      "matrix": [
        1.0,
        0.0,
        0.0,
        0.0,
        0.0,
        1.0,
        0.0,
        0.0,
        0.0,
        0.0,
        1.0,
        0.0,
        1.2837268114089966,
        6.3127617835998535,
        0.0,
        1.0
      ],
      "name": "pCube1_low"
    },
    {
      "mesh": 6,
      "name": "pCube1_low_Foutain_0"
    },
    {
      "children": [
        19
      ],
      "matrix": [
        1.0,
        0.0,
        0.0,
        0.0,
        0.0,
        1.0,
        0.0,
        0.0,
        0.0,
        0.0,
        1.0,
        0.0,
        0.0,
        -0.13689656555652618,
        0.0,
        1.0
      ],
      "name": "tru3_low"
    },
    {
      "mesh": 7,
      "name": "tru3_low_Foutain_0"
    },
    {
      "children": [
        21
      ],
      "matrix": [
        1.0,
        0.0,
        0.0,
        0.0,
        0.0,
        1.0,
        0.0,
        0.0,
        0.0,
        0.0,
        1.0,
        0.0,
        0.0,
        -0.13689656555652618,
        0.0,
        1.0
      ],
      "name": "pCylinder1_low"
    },
    {
      "mesh": 8,
      "name": "pCylinder1_low_Foutain_0"
    },
    {
      "children": [
        23
      ],
      "matrix": [
        1.0,
        0.0,
        0.0,
        0.0,
        0.0,
        1.0,
        0.0,
        0.0,
        0.0,
        0.0,
        1.0,
        0.0,
        -0.3797946572303772,
        -0.14976057410240173,
        -0.8032992482185364,
        1.0
      ],
      "name": "pCube4_low"
    },
    {
      "mesh": 9,
      "name": "pCube4_low_Foutain_0"
    },
    {
      "children": [
        25
      ],
      "matrix": [
        1.0,
        0.0,
        0.0,
        0.0,
        0.0,
        1.0,
        0.0,
        0.0,
        0.0,
        0.0,
        1.0,
        0.0,
        0.0,
        -0.13689656555652618,
        0.0,
        1.0
      ],
      "name": "pCylinder2_low"
    },
    {
      "mesh": 10,
      "name": "pCylinder2_low_Foutain_0"
    },
    {
      "children": [
        27
      ],
      "matrix": [
        1.0,
        0.0,
        0.0,
        0.0,
        0.0,
        1.0,
        0.0,
        0.0,
        0.0,
        0.0,
        1.0,
        0.0,
        0.0,
        -0.13689656555652618,
        0.0,
        1.0
      ],
      "name": "tree_low"
    },
    {
      "mesh": 11,
      "name": "tree_low_Foutain_0"
    },
    {
      "children": [
        29
      ],
      "matrix": [
        0.978786149404317,
        0.20158991253924427,
        0.03659482062655872,
        0.0,
        -0.1999071510898401,
        0.9787816962235678,
        -0.04498357567889984,
        0.0,
        -0.04488657569267224,
        0.03671373448908899,
        0.9983172326582621,
        0.0,
        -1.222959280014038,
        8.150224685668945,
        1.561915636062622,
        1.0
      ],
      "name": "pCube2_low"
    },
    {
      "mesh": 12,
      "name": "pCube2_low_Foutain_0"
    },
    {
      "children": [
        31
      ],
      "matrix": [
        0.908822802829441,
        0.0,
        0.4171823498869998,
        0.0,
        0.0,
        1.0,
        0.0,
        0.0,
        -0.4171823498869998,
        0.0,
        0.908822802829441,
        0.0,
        -23.021099090576172,
        0.0,
        -7.001460075378418,
        1.0
      ],
      "name": "pCube5_low4"
    },
    {
      "mesh": 13,
      "name": "pCube5_low4_Foutain_0"
    },
    {
      "children": [
        33
      ],
      "matrix": [
        1.0,
        0.0,
        0.0,
        0.0,
        0.0,
        1.0,
        0.0,
        0.0,
        0.0,
        0.0,
        1.0,
        0.0,
        0.0,
        -0.13689656555652618,
        0.0,
        1.0
      ],
      "name": "pCube2_low2"
    },
    {
      "mesh": 14,
      "name": "pCube2_low2_Foutain_0"
    },
    {
      "children": [
        35
      ],
      "matrix": [
        1.0,
        0.0,
        0.0,
        0.0,
        0.0,
        1.0,
        0.0,
        0.0,
        0.0,
        0.0,
        1.0,
        0.0,
        0.0,
        -0.13689656555652618,
        0.0,
        1.0
      ],
      "name": "pCube2_low1"
    },
    {
      "mesh": 15,
      "name": "pCube2_low1_Foutain_0"
    },
    {
      "children": [
        37
      ],
      "matrix": [
        1.0,
        0.0,
        0.0,
        0.0,
        0.0,
        1.0,
        0.0,
        0.0,
        0.0,
        0.0,
        1.0,
        0.0,
        0.0,
        -0.13689656555652618,
        0.0,
        1.0
      ],
      "name": "tree_low1"
    },
    {
      "mesh": 16,
      "name": "tree_low1_Foutain_0"
    },
    {
      "children": [
        39
      ],
      "matrix": [
        0.7789561363660442,
        0.0,
        -0.6270784142495137,
        0.0,
        0.0,
        1.0,
        0.0,
        0.0,
        0.6270784142495137,
        0.0,
        0.7789561363660442,
        0.0,
        -4.338951110839844,
        0.0,
        8.295031547546387,
        1.0
      ],
      "name": "pCube5_low5"
    },
    {
      "mesh": 17,
      "name": "pCube5_low5_Foutain_0"
    },
    {
      "children": [
        41
      ],
      "matrix": [
        -0.3605919339329374,
        -0.0,
        -0.9327236767566823,
        -0.0,
        -1.1422570652290218e-16,
        1.0,
        4.415977576893258e-17,
        -0.0,
        -0.9327236767566823,
        -1.2246467991473535e-16,
        0.3605919339329373,
        -0.0,
        1.372109293937683,
        0.0,
        16.850299835205078,
        1.0
      ],
      "name": "pCube5_low6"
    },
    {
      "mesh": 18,
      "name": "pCube5_low6_Foutain_0"
    },
    {
      "children": [
        43
      ],
      "matrix": [
        -0.0634158643728302,
        7.766203531934903e-18,
        0.9979871883675897,
        0.0,
        2.4468286149717886e-16,
        1.0,
        7.766203531934928e-18,
        0.0,
        -0.9979871883675897,
        2.4468286149717886e-16,
        -0.0634158643728302,
        0.0,
        -1.0851855278015137,
        -0.14976057410240173,
        -0.30566734075546265,
        1.0
      ],
      "name": "pCube4_low1"
    },
    {
      "mesh": 19,
      "name": "pCube4_low1_Foutain_0"
    }
  ],
  "samplers": [
    {
      "magFilter": 9729,
      "minFilter": 9987,
      "wrapS": 10497,
      "wrapT": 10497
    }
  ],
  "scene": 0,
  "scenes": [
    {
      "name": "Sketchfab_Scene",
      "nodes": [
        0
      ]
    }
  ],
  "textures": [
    {
      "sampler": 0,
      "source": 0
    },
    {
      "sampler": 0,
      "source": 1
    },
    {
      "sampler": 0,
      "source": 2
    },
    {
      "sampler": 0,
      "source": 3
    }
  ]
}
