{
	"asset":{
		"generator":"Khronos glTF Blender I/O v5.2.40",
		"version":"2.0"
	},
	"scene":0,
	"scenes":[
		{
			"name":"Scene",
			"nodes":[
				0,
				1,
				2,
				3,
				4
			]
		}
	],
	"nodes":[
		{
			"mesh":0,
			"name":"Cube.001",
			"rotation":[
				0.3669033348560333,
				-0.3718537986278534,
				0.6273823976516724,
				0.5774928331375122
			],
			"scale":[
				0.1817551702260971,
				0.07868657261133194,
				0.10344865173101425
			],
			"translation":[
				-0.04961508512496948,
				-0.3523063361644745,
				11.445651054382324
			]
		},
		{
			"mesh":1,
			"name":"Cube.020",
			"rotation":[
				0.3669033348560333,
				-0.3718537986278534,
				0.6273823976516724,
				0.5774928331375122
			],
			"scale":[
				0.1817551702260971,
				0.07868657261133194,
				0.10344865173101425
			],
			"translation":[
				-0.04961508512496948,
				-0.3523063361644745,
				11.445651054382324
			]
		},
		{
			"mesh":2,
			"name":"Cube.032",
			"rotation":[
				0.06347012519836426,
				0.056384067982435226,
				-0.6800689101219177,
				0.7282162308692932
			],
			"scale":[
				0.15784625709056854,
				0.06833577901124954,
				0.08984058350324631
			],
			"translation":[
				-0.04961508512496948,
				-1.1788169145584106,
				10.594710350036621
			]
		},
		{
			"mesh":3,
			"name":"Plane",
			"rotation":[
				0.002296194899827242,
				-0.003055423032492399,
				0.7071030735969543,
				0.7071001529693604
			],
			"scale":[
				0.1817551702260971,
				0.1817551702260971,
				0.18175514042377472
			],
			"translation":[
				0.014048099517822266,
				-1.2357585430145264,
				10.930887222290039
			]
		},
		{
			"mesh":4,
			"name":"Plane.001",
			"rotation":[
				0,
				0,
				-0.6439194083213806,
				0.7650933265686035
			],
			"translation":[
				-0.23950129747390747,
				-0.41687512397766113,
				10.638182640075684
			]
		}
	],
	"materials":[
		{
			"doubleSided":true,
			"name":"Sigils",
			"pbrMetallicRoughness":{
				"baseColorFactor":[
					0.2878846228122711,
					0.02022351697087288,
					0.04572717472910881,
					1
				],
				"metallicFactor":0,
				"roughnessFactor":0.5
			}
		},
		{
			"doubleSided":true,
			"name":"Arc",
			"pbrMetallicRoughness":{
				"baseColorFactor":[
					0.044660694897174835,
					0.09432224929332733,
					0.16952833533287048,
					1
				],
				"metallicFactor":0,
				"roughnessFactor":0.5
			}
		},
		{
			"doubleSided":true,
			"name":"Pedestal",
			"pbrMetallicRoughness":{
				"baseColorFactor":[
					0.27560460567474365,
					0.04613865539431572,
					0.045001134276390076,
					1
				],
				"metallicFactor":0,
				"roughnessFactor":0.5
			}
		},
		{
			"doubleSided":true,
			"name":"Portal"
		}
	],
	"meshes":[
		{
			"name":"Cube.001",
			"primitives":[
				{
					"attributes":{
						"POSITION":0,
						"NORMAL":1,
						"TEXCOORD_0":2
					},
					"indices":3,
					"material":0
				}
			]
		},
		{
			"name":"Cube.020",
			"primitives":[
				{
					"attributes":{
						"POSITION":4,
						"NORMAL":5,
						"TEXCOORD_0":6
					},
					"indices":7,
					"material":1
				}
			]
		},
		{
			"name":"Cube.032",
			"primitives":[
				{
					"attributes":{
						"POSITION":8,
						"NORMAL":9,
						"TEXCOORD_0":10
					},
					"indices":11,
					"material":2
				}
			]
		},
		{
			"name":"Plane",
			"primitives":[
				{
					"attributes":{
						"POSITION":12,
						"NORMAL":13,
						"TEXCOORD_0":14
					},
					"indices":15,
					"material":3
				}
			]
		},
		{
			"name":"Plane.001",
			"primitives":[
				{
					"attributes":{
						"POSITION":16,
						"NORMAL":17,
						"TEXCOORD_0":18
					},
					"indices":15,
					"material":3
				}
			]
		}
	],
	"accessors":[
		{
			"bufferView":0,
			"componentType":5126,
			"count":1467,
			"max":[
				0.8440499305725098,
				-0.051137685775756836,
				6.223847389221191
			],
			"min":[
				-8.127652168273926,
				-2.7931222915649414,
				-11.43679141998291
			],
			"type":"VEC3"
		},
		{
			"bufferView":1,
			"componentType":5126,
			"count":1467,
			"type":"VEC3"
		},
		{
			"bufferView":2,
			"componentType":5126,
			"count":1467,
			"type":"VEC2"
		},
		{
			"bufferView":3,
			"componentType":5123,
			"count":2310,
			"type":"SCALAR"
		},
		{
			"bufferView":4,
			"componentType":5126,
			"count":3509,
			"max":[
				1.3855762481689453,
				2.6966629028320312,
				6.743599891662598
			],
			"min":[
				-8.644638061523438,
				-2.6625216007232666,
				-12.249853134155273
			],
			"type":"VEC3"
		},
		{
			"bufferView":5,
			"componentType":5126,
			"count":3509,
			"type":"VEC3"
		},
		{
			"bufferView":6,
			"componentType":5126,
			"count":3509,
			"type":"VEC2"
		},
		{
			"bufferView":7,
			"componentType":5123,
			"count":5670,
			"type":"SCALAR"
		},
		{
			"bufferView":8,
			"componentType":5126,
			"count":2688,
			"max":[
				2.4531571865081787,
				17.664270401000977,
				17.2192325592041
			],
			"min":[
				-2.1576058864593506,
				-12.851421356201172,
				-13.73537826538086
			],
			"type":"VEC3"
		},
		{
			"bufferView":9,
			"componentType":5126,
			"count":2688,
			"type":"VEC3"
		},
		{
			"bufferView":10,
			"componentType":5126,
			"count":2688,
			"type":"VEC2"
		},
		{
			"bufferView":11,
			"componentType":5123,
			"count":4032,
			"type":"SCALAR"
		},
		{
			"bufferView":12,
			"componentType":5126,
			"count":4,
			"max":[
				5.359435558319092,
				0.009987831115722656,
				-0.07834981381893158
			],
			"min":[
				2.9613265991210938,
				0.009987831115722656,
				-2.4764585494995117
			],
			"type":"VEC3"
		},
		{
			"bufferView":13,
			"componentType":5126,
			"count":4,
			"type":"VEC3"
		},
		{
			"bufferView":14,
			"componentType":5126,
			"count":4,
			"type":"VEC2"
		},
		{
			"bufferView":15,
			"componentType":5123,
			"count":6,
			"type":"SCALAR"
		},
		{
			"bufferView":16,
			"componentType":5126,
			"count":4,
			"max":[
				2.4397785663604736,
				0.3791903853416443,
				2.2938332557678223
			],
			"min":[
				-2.073678731918335,
				-0.4426281154155731,
				-2.2938332557678223
			],
			"type":"VEC3"
		},
		{
			"bufferView":17,
			"componentType":5126,
			"count":4,
			"type":"VEC3"
		},
		{
			"bufferView":18,
			"componentType":5126,
			"count":4,
			"type":"VEC2"
		}
	],
	"bufferViews":[
		{
			"buffer":0,
			"byteLength":17604,
			"byteOffset":0,
			"target":34962
		},
		{
			"buffer":0,
			"byteLength":17604,
			"byteOffset":17604,
			"target":34962
		},
		{
			"buffer":0,
			"byteLength":11736,
			"byteOffset":35208,
			"target":34962
		},
		{
			"buffer":0,
			"byteLength":4620,
			"byteOffset":46944,
			"target":34963
		},
		{
			"buffer":0,
			"byteLength":42108,
			"byteOffset":51564,
			"target":34962
		},
		{
			"buffer":0,
			"byteLength":42108,
			"byteOffset":93672,
			"target":34962
		},
		{
			"buffer":0,
			"byteLength":28072,
			"byteOffset":135780,
			"target":34962
		},
		{
			"buffer":0,
			"byteLength":11340,
			"byteOffset":163852,
			"target":34963
		},
		{
			"buffer":0,
			"byteLength":32256,
			"byteOffset":175192,
			"target":34962
		},
		{
			"buffer":0,
			"byteLength":32256,
			"byteOffset":207448,
			"target":34962
		},
		{
			"buffer":0,
			"byteLength":21504,
			"byteOffset":239704,
			"target":34962
		},
		{
			"buffer":0,
			"byteLength":8064,
			"byteOffset":261208,
			"target":34963
		},
		{
			"buffer":0,
			"byteLength":48,
			"byteOffset":269272,
			"target":34962
		},
		{
			"buffer":0,
			"byteLength":48,
			"byteOffset":269320,
			"target":34962
		},
		{
			"buffer":0,
			"byteLength":32,
			"byteOffset":269368,
			"target":34962
		},
		{
			"buffer":0,
			"byteLength":12,
			"byteOffset":269400,
			"target":34963
		},
		{
			"buffer":0,
			"byteLength":48,
			"byteOffset":269412,
			"target":34962
		},
		{
			"buffer":0,
			"byteLength":48,
			"byteOffset":269460,
			"target":34962
		},
		{
			"buffer":0,
			"byteLength":32,
			"byteOffset":269508,
			"target":34962
		}
	],
	"buffers":[
		{
			"byteLength":269540,
			"uri":"portal.bin"
		}
	]
}
